<svg width="60" height="12" viewBox="0 0 60 12" fill="none" xmlns="http://www.w3.org/2000/svg">
<path d="M5.5 0.466797L6.73483 4.2672H10.7308L7.49799 6.61598L8.73282 10.4164L5.5 8.06761L2.26718 10.4164L3.50201 6.61598L0.269189 4.2672H4.26517L5.5 0.466797Z" fill="#071336"/>
<path d="M17.6006 0.466797L18.8354 4.2672H22.8314L19.5986 6.61598L20.8334 10.4164L17.6006 8.06761L14.3678 10.4164L15.6026 6.61598L12.3698 4.2672H16.3658L17.6006 0.466797Z" fill="#071336"/>
<path d="M29.7002 0.466797L30.935 4.2672H34.931L31.6982 6.61598L32.933 10.4164L29.7002 8.06761L26.4674 10.4164L27.7022 6.61598L24.4694 4.2672H28.4654L29.7002 0.466797Z" fill="#071336"/>
<path d="M41.7998 0.466797L43.0346 4.2672H47.0306L43.7978 6.61598L45.0326 10.4164L41.7998 8.06761L38.567 10.4164L39.8018 6.61598L36.569 4.2672H40.565L41.7998 0.466797Z" fill="#071336"/>
<path d="M53.9004 0.466797L55.1352 4.2672H59.1312L55.8984 6.61598L57.1332 10.4164L53.9004 8.06761L50.6676 10.4164L51.9024 6.61598L48.6696 4.2672H52.6656L53.9004 0.466797Z" fill="#071336"/>
</svg>
